<svg id="Capa_1" enable-background="new 0 0 512 512" height="512" viewBox="0 0 512 512" width="512" xmlns="http://www.w3.org/2000/svg"><path d="m427.059 22.426c19.233 19.233 4.151 50.248 1.774 54.803-.196.375-.494.673-.868.868-4.556 2.378-35.577 17.467-54.811-1.767-27.977-27.977-22.453-65.764-21.006-73.3.158-.824.795-1.461 1.619-1.619 7.534-1.444 45.315-6.962 73.292 21.015z" fill="#ffca28"/><path d="m427.059 22.426c-27.234-27.234-63.748-22.729-72.618-21.138 13.305 2.26 28.588 8.013 41.713 21.138 19.233 19.233 4.151 50.248 1.774 54.804-.196.375-.494.673-.868.868-1.628.849-6.643 3.319-13.284 5.268 18.378 7.426 40.406-3.294 44.189-5.268.375-.196.673-.494.868-.868 2.377-4.556 17.459-35.571-1.774-54.804z" fill="#ffb300"/><path d="m486.245 512h-455.34c-17.068 0-30.905-13.837-30.905-30.905v-36.692c0-2.209 1.791-4 4-4h504c2.209 0 4 1.791 4 4v41.843c0 14.223-11.531 25.754-25.755 25.754z" fill="#f2ac57"/><path d="m481.095 440.402v45.843c0 14.224-11.531 25.755-25.755 25.755h30.905c14.224 0 25.755-11.531 25.755-25.755v-41.843c0-2.209-1.791-4-4-4z" fill="#e39e4b"/><path d="m255.132 164.74-41.207-23.247v-41.207h12.115c16.067 0 29.092 13.025 29.092 29.092z" fill="#a35418"/><path d="m227.028 152.921-47.246 2.502-22.116-34.769 10.222-6.502c13.557-8.623 31.538-4.624 40.161 8.933z" fill="#bf6724"/><path d="m508.083 243.748c0 37.87-32.595 67.611-70.145 64.139v22.511c0 42.898-34.776 77.674-77.674 77.674h-51.154c-59.704 0-108.103-48.399-108.103-108.103v-5.055c0-21.772-17.65-39.422-39.422-39.422-15.614 0-28.271-12.657-28.271-28.271 0-49.674 40.268-89.942 89.942-89.942h4.317c22.709 0 41.117 18.409 41.117 41.117 0 47.017 29.144 77.681 71.789 97.481l38.018 11.847.793-43.977c0-32.492 25.672-64.396 64.397-64.396 35.571.001 64.396 28.836 64.396 64.397z" fill="#bf6724"/><path d="m237.784 178.397c0 47.017 39.764 90.878 71.789 97.481 21.92 4.52 38.191 2.27 38.191 2.27l-7.285-2.27c-42.645-19.8-71.789-50.464-71.789-97.481 0-22.709-18.409-41.117-41.117-41.117h-4.317c-5.434 0-10.755.481-15.923 1.405 17.535 4.698 30.451 20.693 30.451 39.712z" fill="#a35418"/><path d="m443.686 179.352c-5.476 0-10.68.658-15.599 1.845 28.177 6.871 49.09 32.265 49.09 62.551 0 31.15-22.054 56.8-50.779 62.99-11.233 2.421-19.366 12.169-19.366 23.66 0 42.898-34.776 77.674-77.674 77.674h30.905c42.898 0 77.674-34.776 77.674-77.674v-22.511c37.55 3.472 70.145-26.27 70.145-64.139.001-35.561-28.824-64.396-64.396-64.396z" fill="#a35418"/><path d="m420.931 378.878c-73.053-7.17-120.926-55.333-155.595-78.567-38.057-25.504-64.329-.341-64.329-.341 0 59.704 48.399 108.103 108.103 108.103h51.154c24.554-.001 46.433-11.406 60.667-29.195z" fill="#ffe8cf"/><path d="m155.88 397.639c-19.853 29.404-84.208 58.236-122.241 32.557-38.033-25.68-35.343-96.147-15.489-125.551 19.853-29.404 66.779-32.423 104.813-6.743 38.032 25.679 52.77 70.333 32.917 99.737z" fill="#bf6724"/><path d="m122.962 297.901c-22.448-15.157-47.991-20.308-69.24-15.945 12.9 2.392 26.078 7.67 38.334 15.945 38.033 25.679 52.771 70.333 32.918 99.737-12.212 18.087-41.262 35.952-70.666 41.052 37.4 7.642 84.996-16.502 101.572-41.052 19.853-29.404 5.115-74.058-32.918-99.737z" fill="#a35418"/><path d="m174.26 346.971c-10.137 15.013-38.235.645-70.263-20.98s-55.857-42.317-45.72-57.33 36.447-28.083 82.429 2.963c45.98 31.046 43.69 60.334 33.554 75.347z" fill="#ffe8cf"/><path d="m140.704 271.624c-29.227-19.734-50.504-21.641-64.734-16.558 9.81 2.72 21.06 7.936 33.829 16.557 45.981 31.046 43.692 60.335 33.555 75.348-.308.456-.634.883-.974 1.285 14.676 6.295 26.149 7.202 31.88-1.285 10.136-15.013 12.426-44.301-33.556-75.347z" fill="#f2cdae"/><path d="m347.378 413.149s-19.954 9.55-41.026 12.138c-21.072 2.587-9.86 15.116-9.86 15.116l93.7-.266s27.909-20.171 46.883-34.76.862-24.097-12.937-36.161c-13.8-12.064-10.925-22.813-10.925-22.813-1.15-43.488-48.448-73.413-85.098-61.331-73.315 24.168-42.835 115.94 19.263 128.077z" fill="#a35418"/><path d="m424.138 369.215c-13.8-12.064-10.925-22.813-10.925-22.813-1.128-42.655-46.653-72.257-82.981-61.974 27.081 6.968 51.257 31.035 52.075 61.974 0 0-2.875 10.749 10.925 22.813s31.912 21.572 12.937 36.161c-18.974 14.589-46.883 34.76-46.883 34.76l-62.87.179c.044.052.075.088.075.088l93.7-.266s27.909-20.172 46.883-34.76c18.976-14.589.864-24.098-12.936-36.162z" fill="#8c4815"/><path d="m213.258 270.442c-11.583 13.191-32.155 28.207-64.899 25.999-7.658-.516-14.298 5.141-14.987 12.598-.676 7.321 4.614 13.908 12.071 14.964 22.029 3.121 67.27 6.089 102.464-14.208 17.219-9.93 17.404-34.179.337-44.358l-.8-.477c-11.214-6.687-25.636-4.255-34.186 5.482z" fill="#a35418"/><path d="m117.921 118.323c-19.233 19.233-50.248 4.151-54.803 1.774-.375-.196-.673-.494-.868-.868-2.378-4.556-17.467-35.577 1.767-54.811 27.977-27.977 65.764-22.453 73.3-21.006.824.158 1.461.795 1.619 1.619 1.444 7.534 6.962 45.315-21.015 73.292z" fill="#d35d3f"/><path d="m138.934 45.03c-.158-.824-.795-1.461-1.619-1.619-4.001-.768-16.532-2.685-31.594-.127.248.044.484.088.689.127.824.158 1.461.795 1.619 1.619 1.445 7.535 6.963 45.316-21.013 73.293-3.264 3.264-6.87 5.52-10.625 7.037 11.942 3.507 29.166 5.327 41.531-7.037 27.976-27.977 22.458-65.758 21.012-73.293z" fill="#c24b31"/><path d="m450.589 89.254-66.176-66.177c-2.929-2.928-7.678-2.928-10.606 0-2.929 2.93-2.929 7.678 0 10.607l66.176 66.177c2.93 2.929 7.678 2.928 10.606 0 2.929-2.929 2.929-7.677 0-10.607z" fill="#bf6724"/><path d="m106.663 65.069-66.177 66.177c-2.929 2.93-2.929 7.678 0 10.607 2.93 2.929 7.678 2.928 10.606 0l66.177-66.177c2.929-2.93 2.929-7.678 0-10.607-2.929-2.927-7.678-2.927-10.606 0z" fill="#733a10"/></svg>