<svg id="Capa_1" enable-background="new 0 0 512 512" height="512" viewBox="0 0 512 512" width="512" xmlns="http://www.w3.org/2000/svg"><path d="m421.922 92.053 12.515 12.515c2.93 2.929 7.678 2.928 10.606 0 2.929-2.93 2.929-7.678 0-10.608l-12.512-12.513c8.568-19.749 9.987-42.342-5.181-57.511-29.865-29.867-70.1-23.951-77.862-22.46-3.835.735-6.789 3.689-7.523 7.523-1.491 7.764-7.413 48.007 22.453 77.874 15.217 15.219 37.865 13.701 57.504 5.18zm-65.821-76.44c11.182-1.428 39.302-2.412 60.644 18.932 10.155 10.155 7.477 25.493 4.187 35.302l-40.126-40.128c-2.929-2.928-7.678-2.928-10.606 0-2.929 2.93-2.929 7.678 0 10.608l40.123 40.126c-9.809 3.291-25.143 5.97-35.298-4.186-21.341-21.343-20.356-49.469-18.924-60.654z"/><path d="m504.5 427.495h-95.607c8.693-6.398 19.01-14.067 27.448-20.555 7.238-5.566 10.795-11.348 10.875-17.68.122-9.695-7.988-16.667-16.181-23.319 5.953-11.634 9.074-24.551 9.074-37.732v-14.114c16.634-.443 32.765-6.876 45.218-18.232 14.536-13.255 22.872-32.124 22.872-51.769 0-20.345-8.831-39.653-24.229-52.972-3.131-2.708-7.869-2.366-10.579.767s-2.367 7.87.766 10.58c12.101 10.467 19.041 25.639 19.041 41.625 0 15.436-6.553 30.265-17.979 40.684-11.381 10.379-26.664 15.526-41.921 14.112-2.098-.19-4.185.506-5.744 1.926-1.559 1.421-2.447 3.433-2.447 5.542v21.851c0 9.378-1.928 18.59-5.627 27.09-3.879-5.168-3.679-8.96-3.585-9.748 1.755-5.255-1.621-38.813-33.476-59.358 1.023-56.795.758-38.324.758-42.1 0-33.281 30.444-61.144 66.04-53.909 4.059.821 8.019-1.797 8.843-5.856.825-4.06-1.797-8.019-5.856-8.844-4.584-.932-9.3-1.404-14.017-1.404-19.626 0-37.678 7.744-50.829 21.806-12.174 13.017-19.163 30.56-19.181 48.14l-.588 32.624-26.881-8.375c-20.572-9.615-36.443-21.403-47.179-35.043-11.753-14.919-17.712-32.61-17.712-52.581 0-12.689-5.012-24.23-13.16-32.748v-14.835c0-19.708-16.033-35.742-35.74-35.742h-11.76c-4.142 0-7.5 3.358-7.5 7.5v9.127c-11.359-8.903-27.857-10.49-41.215-1.995l-9.92 6.31c-3.495 2.223-4.526 6.859-2.304 10.354l14.391 22.628c-1.885 1.365-3.724 2.802-5.511 4.311-3.166 2.672-3.566 7.404-.894 10.569 2.671 3.165 7.403 3.568 10.569.895 32.016-27.02 88.044-27.082 88.044 13.626 0 23.421 7.042 44.235 20.927 61.862 10.347 13.146 24.654 24.665 42.622 34.34-.238.075-.476.151-.714.23-16.954 5.589-29.842 15.25-37.742 27.716-4.984-3.748-12.781-9.541-18.053-12.934.27-1.65.414-3.336.427-5.048.221-30.101-38.801-45.235-59.414-21.76v-.001c-1.531 1.743-3.247 3.528-5.159 5.294-8.102-13.691-22.876-22.355-39.365-22.355-11.075 0-19.94-8.968-19.94-19.951 0-13.514 3.438-26.865 9.942-38.609 2.007-3.623.697-8.188-2.927-10.195-3.623-2.007-8.187-.696-10.195 2.927-7.733 13.963-11.821 29.826-11.821 45.877 0 19.282 15.584 34.952 34.94 34.952 11.593 0 21.923 6.366 27.183 16.304-5.218 2.978-11.267 5.464-18.225 6.996-6.504-7.352-14.904-14.521-25.031-21.355-21.458-14.492-40.96-21.036-57.943-19.46-18.494 1.72-28.288 12.39-32.48 18.599-2.27 3.361-3.479 6.923-3.631 10.673-14.936 3.944-27.308 12.392-35.32 24.258-10.79 15.99-16.47 41.654-14.818 66.978 1.747 26.775 11.21 48.338 26.839 61.506h-23.419c-4.142 0-7.5 3.358-7.5 7.5v39.502c0 20.68 16.822 37.503 37.5 37.503h442c17.92 0 32.5-14.58 32.5-32.502v-44.502c0-4.143-3.358-7.501-7.5-7.501zm-333.597-300.594 3.592-2.285c9.672-6.15 22.474-3.308 28.626 6.367l2.595 4.081c-8.444 1.681-16.62 4.504-24.292 8.381zm51.757 6.35v-20.924h4.26c11.436 0 20.74 9.304 20.74 20.741v4.26c-8.975-4.005-16.016-4.221-25-4.077zm105.692 158.079c4.609-1.52 9.484-2.264 14.466-2.264 11.335 0 23.208 3.857 33.651 11.202 14.986 10.541 23.926 26.15 24.617 42.923-2.199 14.58 9.239 25.279 19.455 33.553 4.665 3.778 11.715 9.487 11.679 12.328-.013 1.033-1.338 3.147-5.019 5.977-15.281 11.749-36.841 27.45-43.379 32.195l-75.737.216c20.531-2.987 39.05-11.768 39.856-12.155 6.493-3.106 5.275-12.743-1.799-14.126-30.311-5.926-52.401-34.319-54.088-61.188-1.436-22.848 11.795-40.584 36.298-48.661zm-48.83 27.436c-2.085 6.884-2.933 14.32-2.441 22.164 1.047 16.677 8.078 33.458 19.796 47.254 2.383 2.806 4.927 5.438 7.607 7.884-21.335-.646-41.334-8.037-58.01-21.475-14.892-12-25.975-28.217-31.756-46.269 14.65-2.966 38.144-10.41 47.16-22.422 5.469 3.717 11.4 8.147 17.644 12.864zm-59.376-43.811c0-.001 0-.001 0 0 9.458-10.772 21.131-5.299 24.483-3.363.027.017.059.034.093.054 5.411 3.27 8.611 8.892 8.565 15.062-.045 6.21-3.369 11.819-8.891 15.004-27.189 15.68-63.496 17.278-94.664 12.863-3.262-.462-5.59-3.278-5.301-6.41.298-3.223 3.252-5.665 6.575-5.437 34.927 2.343 56.872-13.805 69.14-27.773zm-188.81 32.451c6.091-9.022 15.349-15.255 26.98-18.227 2.035 3.547 4.825 7.218 8.368 11.008 2.833 3.031 7.579 3.181 10.601.356 3.025-2.829 3.185-7.576.355-10.601-7.378-7.892-9.853-13.768-7.355-17.468 17.614-26.077 59.72-5.304 83.31 15.377-.523-.025-1.048-.056-1.578-.091-11.366-.745-21.481 7.767-22.521 19.024-1.027 11.111 6.938 21.057 18.133 22.643 7.173 1.017 16.313 1.958 26.567 2.199-.901 3.622-2.407 6.469-3.762 8.478-.899 1.331-2.41 2.344-4.851 2.65-.317.006-.637.032-.958.08-15.293.696-51.158-24.212-63.613-33.232-3.355-2.429-8.044-1.678-10.473 1.677-2.429 3.356-1.679 8.044 1.676 10.474 14.711 10.65 38.57 26.575 55.766 32.758 4.258 1.53 8.053 2.46 11.435 2.91 1.594 11.912-.727 22.839-6.823 31.867-18.083 26.783-76.224 51.207-108.247 29.583-32.289-21.807-30.949-84.897-13.01-111.465zm133.69 90.275c8.027-11.889 11.237-26.558 9.292-41.92 3.954-1.77 6.681-4.498 8.551-7.267 2.582-3.829 5.514-9.587 6.653-17.07 3.348-.171 6.759-.434 10.211-.803 6.454 21.742 19.537 41.312 37.332 55.653 19.88 16.018 44.912 24.841 70.486 24.841h6.387c-10.926 2.471-24.196 1.911-28.196 12.558-.489 1.301-.738 2.584-.809 3.822h-155.463c15.229-8.082 28.034-18.674 35.556-29.814zm331.974 81.817c0 9.65-7.851 17.501-17.5 17.501h-442c-12.407 0-22.5-10.094-22.5-22.501v-32.002h482z"/><path d="m57.251 145.332 12.513-12.513c19.707 8.55 42.317 10.008 57.506-5.181 29.863-29.865 23.949-70.104 22.46-77.87-.737-3.834-3.69-6.787-7.522-7.521-7.764-1.491-48.004-7.413-77.87 22.453-9.51 9.51-13.255 22.789-10.833 38.402 1.211 7.802 3.732 14.678 5.654 19.107l-12.514 12.515c-2.929 2.93-2.929 7.678 0 10.608 2.929 2.929 7.677 2.928 10.606 0zm17.693-70.023c21.34-21.342 49.464-20.36 60.649-18.925 1.429 11.182 2.41 39.305-18.93 60.646v.001c-10.155 10.156-25.49 7.477-35.299 4.187l40.125-40.128c2.929-2.93 2.929-7.678 0-10.608-2.929-2.928-7.678-2.928-10.606 0l-40.124 40.126c-3.291-9.809-5.969-25.145 4.185-35.299z"/></svg>